<?xml version="1.0" standalone="no"?>
<!DOCTYPE svg PUBLIC "-//W3C//DTD SVG 20010904//EN"
 "http://www.w3.org/TR/2001/REC-SVG-20010904/DTD/svg10.dtd">
<svg version="1.0" xmlns="http://www.w3.org/2000/svg"
 width="111.000000pt" height="128.000000pt" viewBox="0 0 111.000000 128.000000"
 preserveAspectRatio="xMidYMid meet">

<g transform="translate(0.000000,128.000000) scale(0.100000,-0.100000)"
>

<path d= "M540 1206 l0 -63 63 -12 c71 -14 147 -46 210 -90 l44 -30 44 45 44
45 -40 35 c-56 47 -167 99 -252 118 -115 26 -113 27 -113 -48z"/>
<path d="M84 1097 l-77 -73 52 -37 52 -38 57 52 c31 28 58 55 60 59 3 8 -56
110 -63 110 -2 0 -38 -33 -81 -73z"/>
<path d="M422 1090 c-59 -14 -122 -41 -122 -53 0 -7 14 -33 30 -59 l29 -47 38
14 c21 8 50 16 66 20 26 5 27 8 27 70 0 71 0 71 -68 55z"/>
<path d="M540 1035 c0 -62 1 -65 28 -71 115 -24 171 -65 249 -183 3 -5 123 40
123 47 0 3 -14 27 -30 53 -64 99 -168 173 -287 204 -85 22 -83 24 -83 -50z"/>
<path d="M939 1043 c-54 -60 -54 -55 -3 -130 27 -39 53 -67 61 -65 8 2 34 12
59 22 l45 20 -27 50 c-28 52 -90 130 -103 130 -4 0 -18 -12 -32 -27z"/>
<path d="M198 972 l-51 -48 52 -38 52 -38 27 23 c15 13 31 27 36 31 8 6 -49
118 -60 118 -3 0 -28 -22 -56 -48z"/>
<path d="M447 919 c-117 -27 -210 -130 -224 -247 l-5 -47 63 5 62 5 15 43 c17
51 64 101 103 109 29 5 29 7 29 74 0 38 -1 69 -2 68 -2 -1 -20 -5 -41 -10z"/>
<path d="M540 859 c0 -57 3 -69 16 -69 32 0 83 -41 103 -84 25 -51 26 -92 5
-147 l-17 -41 46 -45 45 -46 31 54 c100 175 6 394 -188 438 l-41 9 0 -69z"/>
<path d="M102 852 c-29 -53 -52 -138 -52 -194 0 -46 1 -48 28 -48 15 0 43 3
63 6 36 6 37 7 42 59 3 29 15 72 27 95 12 24 18 45 13 49 -5 3 -29 20 -54 38
l-46 32 -21 -37z"/>
<path d="M890 761 l-44 -18 -1 -99 c0 -87 -3 -106 -27 -154 -15 -30 -33 -63
-40 -72 -11 -15 -7 -24 32 -63 42 -42 45 -44 62 -28 11 9 38 55 61 101 37 76
42 92 45 175 4 96 -10 177 -31 176 -7 0 -32 -8 -57 -18z"/>
<path d="M233 584 c-26 -11 33 -132 88 -178 17 -14 34 -26 38 -26 4 0 19 25
34 56 l28 56 -31 34 c-16 19 -30 41 -30 49 0 12 -13 15 -57 14 -32 0 -63 -3
-70 -5z"/>
<path d="M590 485 c-14 -8 -50 -14 -80 -15 l-56 0 -27 -55 -27 -55 27 -12 c71
-28 223 -2 262 46 13 15 10 22 -30 61 -42 42 -45 43 -69 30z"/>
<path d="M700 350 c-14 -11 -40 -25 -59 -31 -33 -11 -33 -12 -27 -60 8 -62 15
-79 30 -79 17 0 125 55 156 79 l25 20 -45 45 c-24 26 -47 46 -50 46 -3 0 -16
-9 -30 -20z"/>
<path d="M351 262 l-30 -60 56 -17 c53 -17 195 -26 207 -14 4 3 0 32 -7 65
-12 51 -17 59 -35 56 -22 -3 -114 12 -144 23 -13 5 -23 -6 -47 -53z"/>
<path d="M805 215 c-27 -20 -75 -45 -107 -57 -32 -11 -58 -23 -58 -27 1 -3 7
-31 14 -61 11 -49 15 -55 37 -52 35 4 178 77 219 111 l35 30 -45 46 -45 45
-50 -35z"/>
</g>
</svg>
